<svg width="16" height="16" viewBox="0 0 16 16" fill="none" xmlns="http://www.w3.org/2000/svg">
<g clip-path="url(#clip0_97_3)">
<path d="M5.65625 0.5C5.65625 4.4585 3.517 8 0.5 8C3.517 8 5.65625 11.5417 5.65625 15.5C5.65625 11.5417 7.7955 8 10.8125 8C7.7955 8 5.65625 4.4585 5.65625 0.5Z" fill="white"/>
<path d="M11.75 8C11.75 9.9795 10.6808 11.75 9.17175 11.75C10.6808 11.75 11.75 13.521 11.75 15.5C11.75 13.521 12.8193 11.75 14.3283 11.75C12.8193 11.75 11.75 9.9795 11.75 8Z" fill="white"/>
<path d="M12.922 0.5C12.922 2.47925 11.8527 4.25 10.3438 4.25C11.8525 4.25 12.922 6.021 12.922 8C12.922 6.021 13.9912 4.25 15.5002 4.25C13.9912 4.25 12.922 2.47925 12.922 0.5Z" fill="white"/>
</g>
<defs>
<clipPath id="clip0_97_3">
<rect width="16" height="16" fill="white"/>
</clipPath>
</defs>
</svg>
