<svg width="22" height="22" viewBox="0 0 22 22" fill="none" xmlns="http://www.w3.org/2000/svg">
<g clip-path="url(#clip0_41_564)">
<path d="M6.88196 19.7083C3.87066 18.2783 1.71578 15.3633 1.38426 11.9167H0.00292969C0.463373 17.5633 5.21515 22 11.0075 22L11.6153 21.9725L8.10674 18.48L6.88196 19.7083ZM7.70155 13.7133C7.52658 13.7133 7.37003 13.6858 7.22269 13.64C7.08551 13.5937 6.9599 13.5187 6.85433 13.42C6.75303 13.3283 6.67015 13.2183 6.6149 13.0808C6.55965 12.9525 6.53202 12.8058 6.53202 12.65H5.33487C5.33487 12.98 5.39933 13.2917 5.52825 13.5208C5.65718 13.75 5.83215 13.9792 6.04395 14.1533C6.26496 14.3183 6.5136 14.4467 6.79908 14.5292C7.07535 14.6208 7.37003 14.6667 7.68313 14.6667C8.02386 14.6667 8.34617 14.6208 8.63164 14.5292C8.92633 14.4375 9.18418 14.3 9.39598 14.1258C9.60779 13.9517 9.78275 13.75 9.90247 13.4658C10.0222 13.2 10.0866 12.9067 10.0866 12.5767C10.0866 12.4025 10.0682 12.2283 10.0222 12.0633C9.97614 11.9167 9.91168 11.7425 9.81038 11.5958C9.71829 11.4583 9.58937 11.3208 9.44203 11.2017C9.28547 11.0825 9.1013 11 8.88028 10.9175C9.21391 10.7711 9.49835 10.5325 9.69987 10.23C9.79196 10.0833 9.85643 9.955 9.90247 9.80833C9.94851 9.66167 9.96693 9.515 9.96693 9.36833C9.96693 9.03833 9.91168 8.745 9.80117 8.48833C9.67225 8.25 9.53411 8.02083 9.33152 7.85583C9.14734 7.68167 8.8987 7.55333 8.62244 7.46167C8.33696 7.37917 8.02386 7.33333 7.68313 7.33333C7.37003 7.33333 7.04772 7.37917 6.76224 7.48C6.48598 7.58083 6.23734 7.71833 6.03474 7.8925C5.84136 8.06667 5.6848 8.25 5.56509 8.50667C5.45458 8.745 5.39933 9.00167 5.39933 9.28583H6.59648C6.59648 9.13 6.62411 8.9925 6.67936 8.87333C6.73138 8.75342 6.81011 8.64684 6.90959 8.56167C7.01088 8.47917 7.12139 8.40583 7.25952 8.36C7.39766 8.31417 7.53579 8.28667 7.70155 8.28667C8.0699 8.28667 8.34617 8.37833 8.52114 8.57083C8.69611 8.75417 8.7882 9.02 8.7882 9.35917C8.7882 9.52417 8.75136 9.67083 8.71452 9.80833C8.66873 9.9394 8.58938 10.0563 8.4843 10.1475C8.38301 10.2392 8.25408 10.3125 8.10674 10.3675C7.9594 10.4225 7.77522 10.45 7.57262 10.45H6.86354V11.3942H7.57262C7.77522 11.3942 7.9594 11.4125 8.12516 11.4583C8.29092 11.5042 8.42905 11.5775 8.53956 11.6692C8.65006 11.77 8.75136 11.8892 8.80661 12.0358C8.87108 12.1825 8.8987 12.375 8.8987 12.5583C8.8987 12.9342 8.7882 13.2183 8.57639 13.4108C8.36459 13.6217 8.0699 13.7133 7.70155 13.7133ZM15.5751 8.28667C15.2805 7.98417 14.9305 7.74583 14.5253 7.58083C14.1293 7.41583 13.6781 7.33333 13.1808 7.33333H11.0075V14.6667H13.1256C13.6321 14.6667 14.1017 14.5842 14.5161 14.4192C14.9305 14.2542 15.2897 14.025 15.5843 13.7225C15.879 13.42 16.1185 13.0533 16.2658 12.6317C16.4224 12.2008 16.5052 11.7242 16.5052 11.1925V10.8258C16.5052 10.2942 16.4224 9.8175 16.2658 9.38667C16.1185 8.95583 15.8698 8.58917 15.5751 8.28667ZM15.1976 11.1833C15.1976 11.5683 15.1699 11.9167 15.0871 12.2192C14.995 12.5217 14.8661 12.7875 14.6911 12.9983C14.5161 13.2092 14.2767 13.3742 14.0373 13.4842C13.7702 13.5942 13.4663 13.6492 13.1256 13.6492H12.2876V8.36H13.1808C13.8439 8.36 14.3504 8.57083 14.6911 8.9925C15.041 9.41417 15.1976 10.0192 15.1976 10.8167M11.0075 0L10.3997 0.0275L13.9083 3.52L15.1331 2.29167C18.1444 3.72167 20.2993 6.6275 20.6216 10.0833H22.0029C21.5425 4.43667 16.7999 0 11.0075 0Z" fill="#EDECEC"/>
</g>
<defs>
<clipPath id="clip0_41_564">
<rect width="22" height="22" fill="white" transform="translate(0.00292969)"/>
</clipPath>
</defs>
</svg>
