<svg width="18" height="16" viewBox="0 0 18 16" fill="none" xmlns="http://www.w3.org/2000/svg">
<path d="M0.40617 15.4853C0.290537 15.4555 0.18751 15.3837 0.113789 15.2818C0.0400677 15.1798 -2.86102e-05 15.0536 0 14.9236C0.00308228 12.0175 1.05957 9.2314 2.93771 7.17646C4.81584 5.12153 7.36226 3.96558 10.0183 3.96221H10.5433V1.07654C10.5435 0.966954 10.5722 0.859694 10.6261 0.767276C10.6799 0.674858 10.7567 0.601092 10.8473 0.554592C10.938 0.508092 11.039 0.490773 11.1383 0.504654C11.2377 0.518535 11.3314 0.563045 11.4085 0.632989L17.8093 6.40262C17.8725 6.45996 17.9226 6.53264 17.9556 6.61489C17.9886 6.69714 18.0035 6.78667 17.9993 6.87637C17.9951 6.96607 17.9718 7.05345 17.9312 7.13155C17.8907 7.20965 17.8341 7.27633 17.7658 7.32626L11.3681 11.942C11.2888 12.0012 11.1962 12.0357 11.1003 12.0416C11.0044 12.0475 10.9089 12.0247 10.824 11.9755C10.7391 11.9264 10.6681 11.8528 10.6186 11.7627C10.5692 11.6726 10.5431 11.5695 10.5433 11.4644V8.57536H10.016C5.05499 8.57536 2.37256 12.1663 0.996397 15.1803C0.943605 15.2962 0.856678 15.3894 0.749609 15.4447C0.642542 15.5001 0.521568 15.5144 0.40617 15.4853Z" fill="#EDECEC"/>
</svg>
