<svg width="18" height="18" viewBox="0 0 18 18" fill="none" xmlns="http://www.w3.org/2000/svg">
<g clip-path="url(#clip0_41_554)">
<path d="M9.00001 12.0002C9.82845 12.0002 10.5 11.3286 10.5 10.5002C10.5 9.67176 9.82845 9.00018 9.00001 9.00018C8.17158 9.00018 7.5 9.67176 7.5 10.5002C7.5 11.3286 8.17158 12.0002 9.00001 12.0002Z" fill="#EDECEC"/>
<path d="M16.902 3.0918L14.9085 1.09831C14.709 0.901958 14.4881 0.728637 14.25 0.581544V2.25031C14.2475 4.32034 12.57 5.99782 10.5 6.00032H7.49999C5.42995 5.99782 3.75247 4.32034 3.75001 2.25031V0.000305176C1.67998 0.00280127 0.00249609 1.68028 0 3.75032V14.2503C0.00249609 16.3204 1.67998 17.9978 3.75001 18.0003H14.25C16.32 17.9978 17.9975 16.3204 18 14.2503V5.74308C18.0028 4.74812 17.6074 3.79342 16.902 3.0918ZM9 13.5003C7.34316 13.5003 6.00001 12.1572 6.00001 10.5003C6.00001 8.84347 7.34316 7.50033 9 7.50033C10.6568 7.50033 12 8.84347 12 10.5003C12 12.1572 10.6568 13.5003 9 13.5003Z" fill="#EDECEC"/>
<path d="M7.5 4.50012H10.5C11.7426 4.50012 12.75 3.49275 12.75 2.25012V0.0481409C12.5869 0.0215627 12.4223 0.00553149 12.2572 0.000152588H5.25V2.25015C5.25 3.49275 6.25737 4.50012 7.5 4.50012Z" fill="#EDECEC"/>
</g>
<defs>
<clipPath id="clip0_41_554">
<rect width="18" height="18" fill="white"/>
</clipPath>
</defs>
</svg>
