<svg width="18" height="18" viewBox="0 0 18 18" fill="none" xmlns="http://www.w3.org/2000/svg">
<path d="M14.5029 11C13.9354 11.0002 13.3765 11.1384 12.8744 11.4027C12.3722 11.667 11.9419 12.0496 11.6206 12.5173L6.7456 10.316C7.08748 9.47649 7.09017 8.53703 6.7531 7.69554L11.6236 5.48379C12.0985 6.17285 12.8047 6.66884 13.6141 6.88179C14.4234 7.09474 15.2823 7.01054 16.0348 6.64447C16.7874 6.27839 17.3838 5.65468 17.7159 4.88651C18.0479 4.11833 18.0937 3.25657 17.8448 2.45757C17.5958 1.65856 17.0688 0.975247 16.3592 0.531583C15.6496 0.0879204 14.8045 -0.0866975 13.9771 0.039409C13.1498 0.165515 12.3951 0.583992 11.8499 1.21892C11.3047 1.85385 11.0052 2.66316 11.0056 3.50004C11.0056 3.6991 11.0224 3.89781 11.0559 4.09404L5.8876 6.44004C5.38937 5.97536 4.76636 5.66619 4.09497 5.55043C3.42358 5.43468 2.73301 5.51737 2.10793 5.78837C1.48286 6.05938 0.950457 6.50691 0.576024 7.07608C0.201591 7.64526 0.001402 8.31133 7.33709e-06 8.99262C-0.00138732 9.67392 0.196073 10.3408 0.568173 10.9115C0.940272 11.4822 1.47083 11.9319 2.09479 12.2055C2.71875 12.479 3.40898 12.5646 4.08084 12.4516C4.7527 12.3385 5.37697 12.0319 5.8771 11.5693L11.0521 13.907C10.9305 14.6143 11.0292 15.3419 11.3349 15.9912C11.6406 16.6405 12.1385 17.1802 12.7611 17.5371C13.3838 17.894 14.1011 18.0508 14.8158 17.9864C15.5306 17.922 16.2083 17.6394 16.7571 17.177C17.306 16.7146 17.6994 16.0946 17.8841 15.4011C18.0688 14.7076 18.0358 13.9741 17.7897 13.2999C17.5436 12.6258 17.0962 12.0436 16.5081 11.6322C15.9201 11.2208 15.2205 11.0001 14.5029 11Z" fill="#EDECEC"/>
</svg>
