<svg width="18" height="16" viewBox="0 0 18 16" fill="none" xmlns="http://www.w3.org/2000/svg">
<path d="M17.5938 15.4853C17.7095 15.4555 17.8125 15.3837 17.8862 15.2818C17.9599 15.1798 18 15.0536 18 14.9236C17.9969 12.0175 16.9404 9.2314 15.0623 7.17646C13.1842 5.12153 10.6377 3.96558 7.98166 3.96221H7.45667V1.07654C7.45645 0.966954 7.42775 0.859694 7.37392 0.767276C7.32009 0.674858 7.24335 0.601092 7.15265 0.554592C7.06195 0.508092 6.96104 0.490773 6.86168 0.504654C6.76233 0.518535 6.66863 0.563045 6.59152 0.632989L0.190661 6.40262C0.12748 6.45996 0.0774068 6.53264 0.0444279 6.61489C0.0114489 6.69714 -0.00352493 6.78667 0.000698453 6.87637C0.00492184 6.96607 0.0282258 7.05345 0.0687551 7.13155C0.109284 7.20965 0.165919 7.27633 0.234151 7.32626L6.63191 11.942C6.71121 12.0012 6.8038 12.0357 6.89968 12.0416C6.99557 12.0475 7.09111 12.0247 7.176 11.9755C7.26088 11.9264 7.33189 11.8528 7.38135 11.7627C7.43082 11.6726 7.45686 11.5695 7.45667 11.4644V8.57536H7.98399C12.945 8.57536 15.6274 12.1663 17.0036 15.1803C17.0564 15.2962 17.1433 15.3894 17.2504 15.4447C17.3575 15.5001 17.4784 15.5144 17.5938 15.4853Z" fill="#EDECEC"/>
</svg>
