<svg width="33" height="30" viewBox="0 0 33 30" fill="none" xmlns="http://www.w3.org/2000/svg">
<path d="M31.9002 4.18295C29.3214 3.70494 28.2112 2.55303 27.6958 0.222547C27.6785 0.159277 27.6392 0.103096 27.5838 0.062819C27.5285 0.0225416 27.4602 0.00044657 27.3899 0C27.3193 0.000535016 27.2509 0.0228553 27.1955 0.0634378C27.1401 0.10402 27.1009 0.160553 27.084 0.224114C26.8356 1.37917 26.425 2.22391 25.7929 2.84923C25.7473 2.89625 25.7 2.94013 25.651 2.98245C25.5631 3.06081 25.4668 3.12977 25.3721 3.20029C25.1626 3.35494 24.9373 3.49036 24.6996 3.60464C24.5379 3.68243 24.3721 3.75252 24.2027 3.81465C24.0996 3.85226 23.9999 3.89301 23.8884 3.92749C23.6856 3.99018 23.4659 4.04503 23.2412 4.09675C23.1195 4.12496 23.008 4.15944 22.8795 4.18295C22.7994 4.18313 22.7223 4.21108 22.6632 4.26131H22.6751C22.6392 4.28757 22.6099 4.32085 22.5895 4.35877C22.5691 4.3967 22.5579 4.43834 22.5568 4.48072C22.5568 4.64685 22.7021 4.78007 22.8795 4.78007C25.4566 5.25807 26.5635 6.38648 27.0789 8.71696C27.106 8.85488 27.231 8.96302 27.3899 8.96302C27.542 8.96302 27.6637 8.86271 27.6974 8.73107C27.7245 8.60569 27.76 8.50068 27.7904 8.38314C27.8479 8.16373 27.9087 7.95372 27.978 7.75781C28.0152 7.65594 28.0574 7.56034 28.098 7.46474C28.1706 7.29548 28.2467 7.13562 28.3312 6.98517C28.4106 6.84411 28.4883 6.69993 28.5796 6.57455L28.5965 6.55104C28.7519 6.34315 28.9303 6.1509 29.1288 5.97743C29.7929 5.38659 30.6886 5.01045 31.9002 4.78007C31.9856 4.78007 32.0675 4.74861 32.1279 4.69262C32.1882 4.63663 32.2222 4.56069 32.2222 4.48151C32.2222 4.40233 32.1882 4.32639 32.1279 4.2704C32.0675 4.21441 31.9856 4.18295 31.9002 4.18295ZM21.9518 7.30018C21.6256 8.30791 21.1018 8.89563 20.0152 9.09623C19.9524 9.09623 19.8922 9.11935 19.8479 9.16049C19.8035 9.20164 19.7786 9.25745 19.7786 9.31564C19.7786 9.37384 19.8035 9.42964 19.8479 9.47079C19.8922 9.51194 19.9524 9.53506 20.0152 9.53506C20.8195 9.75917 21.3705 10.0867 21.6932 10.6478C21.7 10.6603 21.7101 10.6713 21.7169 10.6854C21.8183 10.8735 21.8994 11.0851 21.9518 11.3311C21.9518 11.3893 21.9767 11.4451 22.0211 11.4863C22.0654 11.5274 22.1256 11.5505 22.1884 11.5505C22.2511 11.5505 22.3113 11.5274 22.3557 11.4863C22.4 11.4451 22.425 11.3893 22.425 11.3311C22.5061 11.0804 22.6007 10.8547 22.7122 10.6556V10.6541C23.0502 10.0538 23.547 9.68708 24.3616 9.53506C24.4243 9.53506 24.4845 9.51194 24.5289 9.47079C24.5732 9.42964 24.5982 9.37384 24.5982 9.31564C24.5982 9.25745 24.5732 9.20164 24.5289 9.16049C24.4845 9.11935 24.4243 9.09623 24.3616 9.09623C23.275 8.79376 22.6429 8.30791 22.425 7.30018C22.425 7.24199 22.4 7.18618 22.3557 7.14503C22.3113 7.10388 22.2511 7.08077 22.1884 7.08077C22.1256 7.08077 22.0654 7.10388 22.0211 7.14503C21.9767 7.18618 21.9518 7.24199 21.9518 7.30018Z" fill="white" fill-opacity="0.7"/>
<path d="M22.1692 8.08789C22.3098 8.37525 22.4967 8.62472 22.7356 8.83691C22.9462 9.02397 23.1878 9.17364 23.4534 9.29785C22.9404 9.53789 22.5595 9.90683 22.2766 10.4092L22.2122 10.5234V10.5322C22.21 10.5365 22.2075 10.5406 22.2053 10.5449C22.1894 10.5124 22.1744 10.4797 22.1575 10.4482H22.1565C22.1485 10.4332 22.1413 10.4202 22.135 10.4102C22.1264 10.3964 22.1186 10.3854 22.1155 10.3809L22.1145 10.3799C22.1173 10.3841 22.1248 10.3949 22.1331 10.4102L22.1262 10.3984C21.8425 9.90543 21.4272 9.57396 20.9182 9.33496C21.1805 9.21299 21.4132 9.0572 21.6165 8.86035C21.8458 8.63814 22.0237 8.37683 22.1692 8.08789ZM27.3909 1.02344C27.6659 1.92509 28.0672 2.67033 28.678 3.25781C29.273 3.8301 30.0323 4.21972 30.9788 4.48242C30.1013 4.72911 29.3783 5.08559 28.7961 5.60352C28.5729 5.79899 28.3714 6.01664 28.1956 6.25195L28.1907 6.25879L28.175 6.28027C28.0622 6.4354 27.9673 6.61313 27.8958 6.74023H27.8948C27.7992 6.91044 27.7162 7.08749 27.6389 7.26758L27.6379 7.26953C27.6012 7.35605 27.5509 7.46854 27.5081 7.58594L27.5061 7.59082C27.465 7.70692 27.4274 7.82633 27.3918 7.94727C27.1168 7.03337 26.7154 6.28192 26.0979 5.69238C25.5001 5.12178 24.7363 4.7362 23.7844 4.47559C23.8694 4.45273 23.9542 4.43067 24.0364 4.40527C24.1634 4.36599 24.294 4.31347 24.3743 4.28418H24.3752C24.4674 4.25037 24.5585 4.21392 24.6487 4.17578L24.9163 4.05566C25.1819 3.92799 25.4341 3.77602 25.6692 3.60254L25.6711 3.60156C25.7529 3.54063 25.8696 3.45519 25.9768 3.36035L25.9778 3.36133C26.0333 3.31338 26.0885 3.26064 26.1438 3.2041L26.1448 3.20508C26.7228 2.6332 27.1199 1.91232 27.3909 1.02344Z" stroke="white" stroke-opacity="0.7"/>
<path d="M30.1952 9.13543C30.1735 9.24912 30.143 9.36121 30.1039 9.47081C29.9446 9.93343 29.6514 10.3466 29.2563 10.6652C28.8611 10.9839 28.3792 11.1958 27.8631 11.2778C27.88 12.2291 27.8817 13.3309 27.8817 14.6254V14.6866L26.4402 13.3497C25.9325 12.8701 25.413 12.4014 24.8821 11.9439C24.7765 12.341 24.5705 12.709 24.281 13.0175C23.9915 13.326 23.627 13.5661 23.2176 13.718C23.6147 14.055 24.0862 14.4907 24.6979 15.058L27.8817 18.0107C27.8783 20.3223 27.8597 21.9617 27.7076 23.2421C27.542 24.6275 27.2446 25.303 26.8661 25.7701C26.5788 26.1258 26.2391 26.4408 25.8555 26.7073C25.3519 27.0583 24.6236 27.3342 23.1297 27.4862C21.5868 27.646 19.5589 27.6492 16.5763 27.6492H13.8386C10.8559 27.6492 8.82805 27.646 7.28517 27.4862C6.41487 27.3968 5.80313 27.2668 5.34685 27.1038L18.3338 15.058C19.2159 14.2399 19.804 13.6961 20.2991 13.3293C20.3238 13.3109 20.3486 13.2926 20.3735 13.2745C19.9916 13.0488 19.2159 11.6101 18.6413 11.5505C18.0448 12.0019 17.379 12.6194 16.5915 13.3497L3.40684 25.5773C3.0959 25.1165 2.85256 24.4489 2.70891 23.2421C2.53654 21.8112 2.53316 19.9305 2.53316 17.1644V14.6254C2.53316 11.8593 2.53654 9.9786 2.70891 8.54771C2.87452 7.16228 3.17026 6.4868 3.5488 6.01976C3.83608 5.664 4.17575 5.34899 4.55936 5.08256C5.06295 4.73149 5.7913 4.45566 7.28517 4.30207C8.82805 4.14378 10.8559 4.14065 13.8386 4.14065H16.5763C17.9096 4.14065 19.0503 4.14065 20.0439 4.15632C20.1181 3.60202 20.379 3.08359 20.7896 2.67496C21.2002 2.26632 21.7394 1.98835 22.3304 1.88069C20.7959 1.78979 18.9202 1.78979 16.5763 1.78979H13.8386C7.99155 1.78979 5.06633 1.78979 3.03676 3.20187C2.46219 3.60152 1.95353 4.07482 1.52091 4.60768C2.01452e-07 6.48837 0 9.20125 0 14.6254V17.1644C0 22.587 2.01452e-07 25.2999 1.52091 27.1821C1.95221 27.7142 2.46255 28.187 3.03676 28.5864C5.06464 30 7.98986 30 13.8386 30H16.5763C22.4233 30 25.3485 30 27.3781 28.5864C27.9523 28.187 28.4627 27.7142 28.894 27.1821C30.4166 25.3015 30.4166 22.5886 30.4166 17.1644V14.6254C30.4166 12.1962 30.4166 10.3109 30.2814 8.80004C30.25 8.91112 30.2218 9.02296 30.1969 9.13543H30.1952Z" fill="white" fill-opacity="0.7"/>
<path d="M13.8389 2.28979H16.5762C18.0444 2.28979 19.3212 2.29222 20.4424 2.31421C20.4404 2.31617 20.4385 2.31908 20.4365 2.32104C20.0594 2.69656 19.7866 3.15381 19.6416 3.6521C18.7425 3.64188 17.7294 3.64038 16.5762 3.64038H13.8389C10.8673 3.64038 8.80876 3.64294 7.23438 3.80444C5.89254 3.9424 5.09326 4.18211 4.51074 4.52124L4.27441 4.67163C3.85288 4.9644 3.4778 5.31161 3.16016 5.70483C2.75665 6.20269 2.46469 6.8625 2.2832 7.98022L2.21289 8.48804C2.03608 9.95583 2.0332 11.8724 2.0332 14.6257V17.1648C2.0332 19.5735 2.0354 21.3416 2.1543 22.7292L2.21289 23.3015C2.36125 24.5476 2.61888 25.304 2.99219 25.8572L3.31934 26.3406L3.74707 25.9441L16.9316 13.7166C17.618 13.08 18.195 12.549 18.708 12.1365C18.724 12.1498 18.7426 12.1638 18.7617 12.1814C18.891 12.3003 19.0338 12.4671 19.1875 12.6609C19.3188 12.8265 19.4983 13.0647 19.626 13.2234C19.1848 13.5877 18.667 14.0671 17.9941 14.6912L5.00684 26.7371L4.40234 27.2976L5.17871 27.575C5.68652 27.7563 6.34151 27.8916 7.2334 27.9832C8.80813 28.1463 10.8672 28.1492 13.8389 28.1492H16.5762C19.5478 28.1492 21.6069 28.1463 23.1816 27.9832L23.1807 27.9822C24.7138 27.8261 25.538 27.537 26.1406 27.1169C26.5621 26.8241 26.9363 26.477 27.2539 26.0837L27.2549 26.0847C27.7156 25.5162 28.0326 24.736 28.2041 23.3015C28.3603 21.9864 28.3785 20.3156 28.3818 18.0115V17.7927L28.2217 17.6443L25.0381 14.6912C24.6842 14.3629 24.3735 14.0759 24.0957 13.825C24.2958 13.6903 24.4808 13.5346 24.6455 13.3591C24.8118 13.1818 24.9546 12.9868 25.0732 12.7791C25.419 13.0862 25.7612 13.3968 26.0967 13.7136L26.1006 13.7166L27.542 15.0535L28.3818 15.8318V14.6257C28.3818 13.5112 28.3784 12.5358 28.3672 11.6755C28.8066 11.5488 29.2171 11.3393 29.5703 11.0544C29.6825 10.964 29.7866 10.8656 29.8848 10.7625C29.9151 11.8654 29.917 13.138 29.917 14.6257V17.1648C29.917 19.889 29.9154 21.8884 29.7295 23.4431C29.545 24.985 29.1844 26.0285 28.5059 26.8669C28.1049 27.3616 27.6291 27.8025 27.0928 28.1755V28.1765C26.1771 28.8143 25.0341 29.1533 23.3574 29.3259C21.6731 29.4994 19.5103 29.4998 16.5762 29.4998H13.8389C10.9039 29.4998 8.73997 29.4994 7.05566 29.3259C5.37917 29.1532 4.23694 28.8141 3.32227 28.1765V28.1755C2.78594 27.8025 2.31017 27.3616 1.90918 26.8669C1.23131 26.0276 0.870745 24.9832 0.686523 23.4412C0.500833 21.8865 0.5 19.8879 0.5 17.1648V14.6257C0.5 11.9016 0.500815 9.90217 0.686523 8.34741C0.870811 6.80485 1.23195 5.76026 1.91016 4.92163L1.90918 4.92065C2.26148 4.48694 2.66918 4.09628 3.12402 3.75562L3.32227 3.61206C4.23796 2.975 5.38091 2.6361 7.05762 2.46362C8.74191 2.29039 10.9049 2.28979 13.8389 2.28979Z" stroke="white" stroke-opacity="0.7"/>
<path d="M9.2924 13.544C10.1888 13.544 11.0485 13.2138 11.6823 12.626C12.3161 12.0381 12.6722 11.2409 12.6722 10.4096C12.6722 9.57824 12.3161 8.78098 11.6823 8.19315C11.0485 7.60532 10.1888 7.27509 9.2924 7.27509C8.39602 7.27509 7.53636 7.60532 6.90252 8.19315C6.26868 8.78098 5.9126 9.57824 5.9126 10.4096C5.9126 11.2409 6.26868 12.0381 6.90252 12.626C7.53636 13.2138 8.39602 13.544 9.2924 13.544Z" fill="white" fill-opacity="0.7"/>
<path d="M9.29248 7.77509C10.0679 7.7751 10.8046 8.06161 11.3423 8.56024C11.8785 9.05769 12.1724 9.72393 12.1724 10.4099C12.1723 11.0958 11.8786 11.7621 11.3423 12.2595C10.8046 12.7581 10.0678 13.0436 9.29248 13.0436C8.51713 13.0436 7.78034 12.758 7.24268 12.2595C6.70634 11.7621 6.41268 11.0958 6.4126 10.4099C6.4126 9.72389 6.70637 9.0577 7.24268 8.56024C7.78035 8.06159 8.51706 7.77509 9.29248 7.77509Z" stroke="white" stroke-opacity="0.7"/>
</svg>
