<svg width="29" height="28" viewBox="0 0 29 28" fill="none" xmlns="http://www.w3.org/2000/svg">
<path d="M0 2.72038C0 1.99889 0.296291 1.30695 0.823692 0.796782C1.35109 0.286611 2.0664 0 2.81226 0H26.1877C26.9336 0 27.6489 0.286611 28.1763 0.796782C28.7037 1.30695 29 1.99889 29 2.72038V6.07552C29 6.43627 28.8519 6.78224 28.5882 7.03732C28.3245 7.29241 27.9668 7.43572 27.5939 7.43572C27.2209 7.43572 26.8633 7.29241 26.5996 7.03732C26.3359 6.78224 26.1877 6.43627 26.1877 6.07552V3.62718C26.1877 3.38668 26.089 3.15603 25.9132 2.98598C25.7374 2.81592 25.4989 2.72038 25.2503 2.72038H15.9061V24.3728C15.9061 24.6133 16.0049 24.844 16.1807 25.014C16.3565 25.1841 16.5949 25.2796 16.8435 25.2796H20.3589C20.7318 25.2796 21.0895 25.4229 21.3532 25.678C21.6169 25.9331 21.765 26.2791 21.765 26.6398C21.765 27.0006 21.6169 27.3465 21.3532 27.6016C21.0895 27.8567 20.7318 28 20.3589 28H8.64113C8.2682 28 7.91055 27.8567 7.64685 27.6016C7.38315 27.3465 7.235 27.0006 7.235 26.6398C7.235 26.2791 7.38315 25.9331 7.64685 25.678C7.91055 25.4229 8.2682 25.2796 8.64113 25.2796H12.1565C12.4051 25.2796 12.6435 25.1841 12.8193 25.014C12.9951 24.844 13.0939 24.6133 13.0939 24.3728V2.72038H3.74968C3.50106 2.72038 3.26262 2.81592 3.08682 2.98598C2.91102 3.15603 2.81226 3.38668 2.81226 3.62718V6.1263C2.81226 6.48705 2.66411 6.83302 2.40041 7.0881C2.13671 7.34319 1.77906 7.4865 1.40613 7.4865C1.0332 7.4865 0.675547 7.34319 0.411846 7.0881C0.148146 6.83302 0 6.48705 0 6.1263V2.72038Z" fill="white" fill-opacity="0.7"/>
</svg>
