<svg width="30" height="30" viewBox="0 0 30 30" fill="none" xmlns="http://www.w3.org/2000/svg">
<rect x="0.0226254" y="0.0226254" width="29.9548" height="29.9548" stroke="white" stroke-opacity="0.7" stroke-width="0.0452507"/>
<path d="M22.9998 9.2241C22.7737 9.1596 22.5674 9.03959 22.3995 8.87498C22.2316 8.71037 22.1075 8.50639 22.0386 8.2816C21.6558 6.98416 21.0138 5.77786 20.1513 4.73572C19.2889 3.69357 18.2239 2.83724 17.021 2.21855C15.818 1.59985 14.5021 1.23166 13.1527 1.13624C11.8033 1.04082 10.4486 1.22016 9.17058 1.66342C7.89253 2.10667 6.7177 2.80462 5.71718 3.71503C4.71666 4.62544 3.91125 5.72938 3.34969 6.96004C2.78813 8.19071 2.4821 9.52252 2.45012 10.8749C2.41813 12.2272 2.66085 13.572 3.1636 14.8279C3.27909 15.0921 3.30396 15.3872 3.23432 15.6671C3.16469 15.947 3.00447 16.196 2.7786 16.3754C1.78326 17.1141 1.00615 18.1082 0.529537 19.2524C0.0529187 20.3967 -0.105483 21.6485 0.0710978 22.8753C0.346664 24.534 1.20775 26.0388 2.49808 27.1167C3.7884 28.1947 5.42243 28.7743 7.1036 28.7504H13.7498C14.0814 28.7504 14.3993 28.6187 14.6337 28.3842C14.8682 28.1498 14.9998 27.8319 14.9998 27.5004C14.9998 27.1688 14.8682 26.8509 14.6337 26.6165C14.3993 26.382 14.0814 26.2504 13.7498 26.2504H7.1036C6.02395 26.2766 4.97063 25.9151 4.13455 25.2315C3.29847 24.5479 2.73494 23.5874 2.5461 22.5241C2.42634 21.7425 2.5234 20.9431 2.82669 20.2128C3.12998 19.4826 3.62786 18.8496 4.2661 18.3829C4.9365 17.8818 5.42145 17.1722 5.64477 16.3656C5.86808 15.559 5.81711 14.7011 5.49985 13.9266C4.87254 12.27 4.84028 10.4469 5.4086 8.7691C5.86259 7.45482 6.67558 6.29395 7.75545 5.41798C8.83533 4.54202 10.1389 3.98598 11.5186 3.81285C11.8386 3.77165 12.1609 3.75077 12.4836 3.75035C14.0999 3.74502 15.6745 4.26339 16.9715 5.22784C18.2686 6.19229 19.2183 7.55094 19.6786 9.10035C19.8583 9.69081 20.182 10.2273 20.6206 10.6615C21.0592 11.0958 21.5989 11.4141 22.1911 11.5879C23.6405 12.0165 24.9243 12.8777 25.8707 14.0561C26.8171 15.2346 27.381 16.674 27.4868 18.1817C27.5925 19.6894 27.2352 21.1935 26.4626 22.4925C25.6899 23.7915 24.5389 24.8235 23.1636 25.4503C22.9601 25.5546 22.7899 25.7139 22.6725 25.9102C22.5552 26.1064 22.4953 26.3317 22.4998 26.5603C22.4974 26.7672 22.547 26.9713 22.644 27.154C22.741 27.3367 22.8823 27.4921 23.055 27.606C23.2277 27.7198 23.4263 27.7885 23.6324 27.8056C23.8386 27.8228 24.0457 27.7879 24.2348 27.7041C29.4023 25.2204 32.2098 18.6866 27.8348 12.3741C26.6302 10.8027 24.924 9.69112 22.9998 9.2241Z" fill="white" fill-opacity="0.7"/>
<path d="M23.3835 20.8831C23.6179 20.6487 23.7495 20.3308 23.7495 19.9994C23.7495 19.6679 23.6179 19.35 23.3835 19.1156L21.401 17.1331C20.6978 16.4301 19.7441 16.0352 18.7498 16.0352C17.7554 16.0352 16.8018 16.4301 16.0985 17.1331L14.116 19.1156C13.8883 19.3514 13.7623 19.6671 13.7652 19.9949C13.768 20.3226 13.8995 20.6361 14.1313 20.8679C14.363 21.0996 14.6765 21.2311 15.0043 21.2339C15.332 21.2368 15.6478 21.1108 15.8835 20.8831L17.4998 19.2669V28.7494C17.4998 29.0809 17.6315 29.3988 17.8659 29.6332C18.1003 29.8677 18.4183 29.9994 18.7498 29.9994C19.0813 29.9994 19.3992 29.8677 19.6337 29.6332C19.8681 29.3988 19.9998 29.0809 19.9998 28.7494V19.2669L21.616 20.8831C21.8504 21.1174 22.1683 21.2491 22.4998 21.2491C22.8312 21.2491 23.1491 21.1174 23.3835 20.8831Z" fill="white" fill-opacity="0.7"/>
</svg>
